<svg xmlns="http://www.w3.org/2000/svg" viewBox="0 0 120 120" fill="none">
  <defs>
    <linearGradient id="nx" x1="0" y1="0" x2="120" y2="120" gradientUnits="userSpaceOnUse">
      <stop offset="0%" stop-color="#6366f1"/>
      <stop offset="100%" stop-color="#a78bfa"/>
    </linearGradient>
    <linearGradient id="bg" x1="0" y1="0" x2="120" y2="120" gradientUnits="userSpaceOnUse">
      <stop offset="0%" stop-color="#1e1b4b"/>
      <stop offset="100%" stop-color="#0f0a2e"/>
    </linearGradient>
  </defs>
  <rect width="120" height="120" rx="26" fill="url(#bg)"/>
  <!-- Dome arcs -->
  <path d="M30 82 Q60 20 90 82" stroke="url(#nx)" stroke-width="2.5" fill="none" opacity="0.3"/>
  <path d="M38 78 Q60 30 82 78" stroke="url(#nx)" stroke-width="2" fill="none" opacity="0.2"/>
  <!-- Connection lines -->
  <line x1="60" y1="38" x2="40" y2="62" stroke="#6366f1" stroke-width="1.5" opacity="0.5"/>
  <line x1="60" y1="38" x2="80" y2="62" stroke="#6366f1" stroke-width="1.5" opacity="0.5"/>
  <line x1="40" y1="62" x2="60" y2="76" stroke="#6366f1" stroke-width="1.5" opacity="0.4"/>
  <line x1="80" y1="62" x2="60" y2="76" stroke="#6366f1" stroke-width="1.5" opacity="0.4"/>
  <line x1="40" y1="62" x2="80" y2="62" stroke="#6366f1" stroke-width="1.2" opacity="0.25"/>
  <line x1="60" y1="38" x2="60" y2="76" stroke="#6366f1" stroke-width="1.2" opacity="0.25"/>
  <!-- Nodes -->
  <circle cx="60" cy="38" r="6" fill="#6366f1"/>
  <circle cx="60" cy="38" r="3" fill="#c7d2fe"/>
  <circle cx="40" cy="62" r="4.5" fill="#6366f1" opacity="0.9"/>
  <circle cx="40" cy="62" r="2" fill="#c7d2fe"/>
  <circle cx="80" cy="62" r="4.5" fill="#6366f1" opacity="0.9"/>
  <circle cx="80" cy="62" r="2" fill="#c7d2fe"/>
  <circle cx="60" cy="76" r="4" fill="#6366f1" opacity="0.8"/>
  <circle cx="60" cy="76" r="1.8" fill="#c7d2fe"/>
  <!-- Base -->
  <line x1="28" y1="84" x2="92" y2="84" stroke="url(#nx)" stroke-width="2.5" stroke-linecap="round"/>
</svg>
